<?xml version="1.0" encoding="UTF-8" standalone="no"?>
<!-- Created with Inkscape (http://www.inkscape.org/) -->

<svg
   xmlns:dc="http://purl.org/dc/elements/1.1/"
   xmlns:cc="http://creativecommons.org/ns#"
   xmlns:rdf="http://www.w3.org/1999/02/22-rdf-syntax-ns#"
   xmlns:svg="http://www.w3.org/2000/svg"
   xmlns="http://www.w3.org/2000/svg"
   xmlns:sodipodi="http://sodipodi.sourceforge.net/DTD/sodipodi-0.dtd"
   xmlns:inkscape="http://www.inkscape.org/namespaces/inkscape"
   width="60"
   height="38"
   viewBox="0 0 15.875 10.054167"
   version="1.1"
   id="svg4618"
   inkscape:version="0.92.2 5c3e80d, 2017-08-06"
   sodipodi:docname="unstable.svg">
  <defs
     id="defs4612" />
  <sodipodi:namedview
     id="base"
     pagecolor="#ffffff"
     bordercolor="#666666"
     borderopacity="1.0"
     inkscape:pageopacity="0"
     inkscape:pageshadow="2"
     inkscape:zoom="3.959798"
     inkscape:cx="-9.1570937"
     inkscape:cy="10.734256"
     inkscape:document-units="px"
     inkscape:current-layer="layer1"
     showgrid="false"
     units="px"
     inkscape:window-width="1600"
     inkscape:window-height="757"
     inkscape:window-x="0"
     inkscape:window-y="27"
     inkscape:window-maximized="1"
     inkscape:pagecheckerboard="false"
     showborder="true"
     inkscape:showpageshadow="false" />
  <metadata
     id="metadata4615">
    <rdf:RDF>
      <cc:Work
         rdf:about="">
        <dc:format>image/svg+xml</dc:format>
        <dc:type
           rdf:resource="http://purl.org/dc/dcmitype/StillImage" />
        <dc:title></dc:title>
      </cc:Work>
    </rdf:RDF>
  </metadata>
  <g
     inkscape:label="Layer 1"
     inkscape:groupmode="layer"
     id="layer1"
     transform="translate(0,-286.94583)">
    <rect
       style="fill:#fff176;fill-opacity:1;stroke-width:0.28285146"
       id="rect1970"
       width="15.875"
       height="10.054167"
       x="0.02585613"
       y="286.94583" />
    <path
       inkscape:connector-curvature="0"
       d="M 9.5249997,290.12083 H 6.35 c -0.1455208,0 -0.2645833,0.11906 -0.2645833,0.26458 v 3.175 c 0,0.14552 0.1190625,0.26459 0.2645833,0.26459 h 3.1749997 c 0.145521,0 0.264584,-0.11907 0.264584,-0.26459 v -3.175 c 0,-0.14552 -0.119063,-0.26458 -0.264584,-0.26458 z m 0,3.43958 H 6.35 v -3.175 H 9.5249997 Z M 7.14375,291.97291 c 0,-0.43921 0.3545417,-0.79375 0.79375,-0.79375 0.4392084,0 0.7937497,0.35454 0.7937497,0.79375 0,0.43921 -0.3545413,0.79375 -0.7937497,0.79375 -0.4392083,0 -0.79375,-0.35454 -0.79375,-0.79375 z"
       id="path2"
       style="fill:#a08700;fill-opacity:1;stroke-width:0.26458332" />
  </g>
</svg>
